<?xml version="1.0" encoding="UTF-8"?>
<svg width="120" height="120" viewBox="0 0 120 120" fill="none" xmlns="http://www.w3.org/2000/svg">
    <!-- Background circle -->
    <circle cx="60" cy="60" r="60" fill="#F5DDD1"/>
    
    <!-- Face -->
    <ellipse cx="60" cy="50" rx="25" ry="28" fill="#FEDCBA"/>
    
    <!-- Hair -->
    <path d="M35 35 Q60 15 85 35 Q85 45 80 55 Q75 45 60 48 Q45 45 40 55 Q35 45 35 35" fill="#8B4513"/>
    <path d="M30 40 Q35 30 45 35 Q40 50 35 60 Q25 50 30 40" fill="#8B4513"/>
    <path d="M90 40 Q85 30 75 35 Q80 50 85 60 Q95 50 90 40" fill="#8B4513"/>
    <path d="M40 60 Q50 70 60 68 Q70 70 80 60 Q75 75 60 75 Q45 75 40 60" fill="#8B4513"/>
    
    <!-- Eyes -->
    <ellipse cx="52" cy="45" rx="3" ry="4" fill="#333"/>
    <ellipse cx="68" cy="45" rx="3" ry="4" fill="#333"/>
    
    <!-- Eyebrows -->
    <path d="M47 40 Q52 38 57 40" stroke="#8B4513" stroke-width="2" fill="none"/>
    <path d="M63 40 Q68 38 73 40" stroke="#8B4513" stroke-width="2" fill="none"/>
    
    <!-- Nose -->
    <ellipse cx="60" cy="50" rx="1.5" ry="2" fill="#F4C2A1"/>
    
    <!-- Mouth -->
    <path d="M55 55 Q60 58 65 55" stroke="#D4756B" stroke-width="2" fill="none"/>
    
    <!-- Body/Shirt -->
    <path d="M30 90 Q45 75 60 80 Q75 75 90 90 Q90 120 60 120 Q30 120 30 90" fill="#D4A574"/>
</svg>